<!-- icon666.com - MILLIONS OF FREE VECTOR ICONS --><svg viewBox="0 0 512 512" xmlns="http://www.w3.org/2000/svg"><g id="Layer_2" data-name="Layer 2"><g id="Layer_1-2" data-name="Layer 1"><g id="A"><path d="m362 0h-212a150 150 0 0 0 -150 150v212a150 150 0 0 0 150 150h212a150 150 0 0 0 150-150v-212a150 150 0 0 0 -150-150zm-25 372.18h-51.93v-130.89a174 174 0 0 0 -26.32-8.84 171.52 171.52 0 0 0 -23.08-3.78q-4.32 16.59-7.57 33.71t-5.41 33.9q-2.16 16.75-3.25 32.63t-1.08 29.21a200.76 200.76 0 0 0 1.25 24.88 86.73 86.73 0 0 0 3.2 15.68 34.91 34.91 0 0 0 4.26 9.2q2.31 3.24 4.09 5.4a183.83 183.83 0 0 1 -19.23-1.08 41.28 41.28 0 0 1 -19.05-7q-8.81-5.94-14.56-18.21t-5.75-35a214.12 214.12 0 0 1 1.8-26.33q1.8-14.42 5-30.47t8.16-33.19q4.88-17.11 11-34.07-17.31 1.08-27.76 5.4t-12.26 13.71q1.8 0 4.68 4.5a16.41 16.41 0 0 1 2.89 8.84q0 5.4-5.05 8.65a22.93 22.93 0 0 1 -12.62 3.25 30.39 30.39 0 0 1 -18.93-6.49q-8.48-6.47-8.48-19.09 0-17.31 17.64-28.49t46.44-11.21q8.64 0 21.24 1.08a350.42 350.42 0 0 1 20.16-40.92 206.73 206.73 0 0 1 24.11-33.9 114.93 114.93 0 0 1 27.41-23.04 58.78 58.78 0 0 1 30.25-8.48 105.47 105.47 0 0 1 13.49 1.08 64.17 64.17 0 0 1 15.3 4z"></path><path d="m259.55 159.8q-11.55 23.07-19.83 53.36 11.17 2.16 22.54 5.23t22.53 7l.28-97.72q-13.98 9.06-25.52 32.13z"></path></g></g></g></svg>