<!-- icon666.com - MILLIONS OF FREE VECTOR ICONS --><svg id="Layer_2" viewBox="0 0 512 512" xmlns="http://www.w3.org/2000/svg" data-name="Layer 2"><g id="Icon"><path id="A" d="m362 0h-212c-82.84 0-150 67.16-150 150v212c0 82.84 67.16 150 150 150h212c82.84 0 150-67.16 150-150v-212c0-82.84-67.16-150-150-150zm34.01 431.05h-70.07v-70.07h-140.13v70.07h-69.82v-209.96c0-19.37 3.66-37.56 10.99-54.57 7.32-17.01 17.29-31.86 29.91-44.56 12.61-12.7 27.42-22.71 44.43-30.03s35.19-10.99 54.57-10.99 37.56 3.66 54.57 10.99c17.01 7.32 31.86 17.33 44.56 30.03s22.71 27.55 30.03 44.56 10.99 35.2 10.99 54.57v209.96zm-75.56-237.18c3.66 8.54 5.49 17.62 5.49 27.22v70.07h-140.13v-70.07c0-9.6 1.83-18.68 5.49-27.22s8.67-15.99 15.01-22.34 13.79-11.35 22.34-15.01 17.62-5.49 27.22-5.49 18.68 1.83 27.22 5.49 15.99 8.67 22.34 15.01 11.35 13.79 15.01 22.34z"></path></g></svg>