<svg id="svgWorkerArea" xmlns="http://www.w3.org/2000/svg" version="1.1" xmlns:xlink="http://www.w3.org/1999/xlink" xmlns:artdraw="https://artdraw.org" viewBox="0 0 600 600" width="100%" height="100%" style="background: white;" css="background:#9b9b9b;"><defs id="defsdoc"><pattern id="patternBool" x="0" y="0" width="10" height="10" patternUnits="userSpaceOnUse" patternTransform="rotate(35)"><circle cx="5" cy="5" r="4" style="stroke: none;fill: #ff000070;"></circle></pattern></defs><g id="text_139419477" class="cosito"><path id="letter_426615140" fill="rgb(145, 145, 145)" fill-opacity="0.25" stroke="#000000" stroke-width="1" d="M122.9 300.45C122.9 300.45 122.9 300.45 122.9 300.45 120.9 293.45 119.3 287.65 118.1 282.95 116.9 278.35 115.9 274.65 115.1 271.85 114.4 269.05 113.9 267.05 113.5 265.65 113.1 264.35 112.9 263.45 112.6 262.85 112.6 262.85 112.6 262.85 112.6 262.85 112.6 262.85 100.6 303.85 100.6 303.85 101.7 304.05 102.7 304.15 103.7 304.15 104.7 304.25 105.7 304.25 106.6 304.25 106.6 304.25 106.6 304.25 106.6 304.25 108.7 304.25 111.1 304.05 113.8 303.55 116.4 303.15 119.4 302.15 122.9 300.45 122.9 300.45 122.9 300.45 122.9 300.45M140.3 325.95C140.3 326.05 140.3 326.05 140.3 325.95 140.8 327.95 142.1 329.35 144.2 330.25 146.2 331.25 148.8 331.75 151.8 331.65 151.8 331.75 151.8 331.75 151.8 331.65 151.8 331.75 151.8 335.85 151.8 335.85 150.9 335.85 150 335.85 148.8 335.7 147.6 335.65 146.4 335.55 145 335.35 143.6 335.25 142.2 335.15 140.8 335 139.4 334.95 138 334.85 136.8 334.85 136.8 334.85 136.8 334.85 136.8 334.85 135.4 334.85 133.9 334.95 132.4 335 130.8 335.15 129.2 335.25 127.6 335.35 126 335.55 124.6 335.65 123.2 335.7 121.8 335.85 120.8 335.85 119.9 335.85 119.9 335.85 119.9 335.85 119.9 335.85 119.9 335.85 119.9 331.75 119.9 331.65 120.9 331.75 122 331.65 123.1 331.55 124.3 331.55 125.3 331.35 126.3 331 127.3 330.75 128.1 330.35 128.7 329.7 129.3 329.15 129.6 328.35 129.6 327.35 129.6 327.35 129.6 327.35 129.6 327.35 129.6 327.15 129.6 326.75 129.5 326.15 129.4 325.65 129.1 324.65 128.8 323.15 128.4 321.75 127.8 319.65 127.1 316.9 126.4 314.25 125.4 310.65 124.3 305.95 124.3 306.05 124.3 306.05 124.3 305.95 120.3 307.35 116.7 308.35 113.7 308.75 110.7 309.25 107.9 309.55 105.4 309.45 105.4 309.55 105.4 309.55 105.4 309.45 104.4 309.55 103.4 309.45 102.4 309.35 101.3 309.35 100.2 309.25 99.1 309.05 99.1 309.15 99.1 309.15 99.1 309.05 99.1 309.15 95.5 322.05 95.5 322.05 95.1 323.15 94.9 324.05 94.6 324.8 94.5 325.65 94.4 326.25 94.5 326.75 94.5 326.75 94.5 326.75 94.5 326.75 94.5 327.95 94.8 328.95 95.4 329.5 96 330.15 96.9 330.65 97.9 330.95 98.9 331.35 100 331.55 101.2 331.55 102.4 331.65 103.6 331.75 104.9 331.65 104.9 331.75 104.9 331.75 104.9 331.65 104.9 331.75 104.9 335.85 104.9 335.85 104.1 335.85 103.1 335.85 101.9 335.7 100.6 335.65 99.3 335.55 97.9 335.35 96.5 335.25 95 335.15 93.6 335 92.1 334.95 90.7 334.85 89.5 334.85 89.5 334.85 89.5 334.85 89.5 334.85 86.9 334.85 84.4 335.05 82 335.35 79.6 335.75 77.6 335.85 76.1 335.85 76.1 335.85 76.1 335.85 76.1 335.85 76.1 335.85 76.1 331.75 76.1 331.65 79 331.75 81.5 331.25 83.4 330.25 85.3 329.35 86.5 327.95 87.2 325.95 87.2 326.05 87.2 326.05 87.2 325.95 87.2 326.05 92.9 307.85 92.9 307.85 89 306.75 85.8 304.95 83.2 302.5 80.6 300.15 79.3 296.95 79.3 292.95 79.3 292.95 79.3 292.95 79.3 292.95 79.3 291.95 79.4 291.15 79.6 290.65 79.8 290.25 80.2 289.85 80.7 289.35 80.7 289.35 80.7 289.35 80.7 289.35 79.6 288.15 79 286.55 79 284.65 79 284.65 79 284.65 79 284.65 79 283.55 79.3 282.45 79.7 281.3 80.1 280.25 80.7 279.25 81.5 278.4 82.3 277.65 83.2 276.95 84.2 276.4 85.3 275.95 86.5 275.65 87.9 275.65 87.9 275.65 87.9 275.65 87.9 275.65 88.5 275.65 89.1 275.75 89.7 275.9 90.3 276.15 90.8 276.35 91.3 276.6 91.8 276.95 92.3 277.35 92.9 277.8 93.5 278.35 94.1 278.85 94.9 279.45 94.9 279.45 94.9 279.45 94.9 279.45 92.3 280.55 90.5 282.15 89.4 284.25 88.2 286.45 87.7 288.65 87.7 290.95 87.7 290.95 87.7 290.95 87.7 290.95 87.7 294.15 88.3 296.65 89.7 298.45 91 300.35 92.6 301.65 94.6 302.45 94.6 302.45 94.6 302.45 94.6 302.45 94.6 302.45 109.6 257.35 109.6 257.25 112.9 257.35 116.4 256.95 119.9 256.15 123.5 255.45 126.9 254.75 130.1 253.85 130.1 253.85 130.1 253.85 130.1 253.85 130.1 253.85 132.1 257.35 132.1 257.35 130.6 257.65 129.5 257.95 128.6 258.2 127.7 258.55 127 258.95 126.5 259.3 126 259.75 125.7 260.35 125.5 260.9 125.3 261.55 125.3 262.35 125.3 263.25 125.3 263.35 125.3 263.35 125.3 263.25 125.3 263.95 125.3 264.85 125.4 265.75 125.5 266.85 125.7 268.25 126.1 270 126.5 271.85 127 274.25 127.6 277.05 128.3 279.95 129.2 283.65 130.3 288 131.4 292.45 132.8 297.85 134.4 303.95 136 310.15 138 317.55 140.3 325.95 140.3 326.05 140.3 326.05 140.3 325.95"></path><path id="letter_803533615" fill="rgb(145, 145, 145)" fill-opacity="0.25" stroke="#000000" stroke-width="1" d="M168.9 315.65C168.9 315.65 168.9 326.05 168.9 325.95 168.9 327.35 169.1 328.45 169.5 329.25 169.9 330.15 170.5 330.85 171.1 331.35 171.7 331.95 172.5 332.35 173.3 332.5 174.1 332.75 174.9 332.85 175.8 332.85 175.8 332.85 175.8 332.85 175.8 332.85 175.8 332.85 175.8 335.85 175.8 335.85 174.9 335.85 174.1 335.85 173.1 335.7 172.1 335.65 171.1 335.55 170 335.35 169 335.25 168 335.15 167 335 166 334.95 165.2 334.85 164.4 334.85 164.4 334.85 164.4 334.85 164.4 334.85 163.5 334.85 162.7 334.95 161.7 335 160.7 335.15 159.7 335.25 158.7 335.35 157.6 335.55 156.6 335.65 155.6 335.7 154.6 335.85 153.8 335.85 152.9 335.85 152.9 335.85 152.9 335.85 152.9 335.85 152.9 335.85 152.9 332.85 152.9 332.85 154.8 332.85 156.4 332.35 157.8 331.35 159.2 330.35 159.9 328.55 159.9 325.95 159.9 326.05 159.9 326.05 159.9 325.95 159.9 326.05 159.9 309.25 159.9 309.25 159.9 306.85 159.8 304.75 159.7 303.1 159.6 301.55 159.3 300.25 158.9 299.3 158.4 298.45 157.7 297.85 156.9 297.4 156 297.05 154.8 296.85 153.3 296.85 153.3 296.85 153.3 296.85 153.3 296.85 153.3 296.85 153.3 294.35 153.3 294.35 154.9 294.35 156.4 294.35 157.6 294.05 158.8 293.85 159.9 293.65 160.9 293.15 161.9 292.85 162.9 292.35 163.7 291.75 164.5 291.25 165.4 290.65 166.4 290.05 166.4 290.15 166.4 290.15 166.4 290.05 166.4 290.15 168.9 290.15 168.9 290.05 168.9 290.15 168.9 300.45 168.9 300.45 170.4 296.55 172.4 293.65 174.6 291.8 176.8 290.05 179.1 289.15 181.4 289.05 181.4 289.15 181.4 289.15 181.4 289.05 182.9 289.15 184.3 289.35 185.4 289.75 186.7 290.25 187.3 291.05 187.3 292.15 187.3 292.15 187.3 292.15 187.3 292.15 188.6 292.15 189.6 292.65 190.4 293.45 191.2 294.35 191.5 295.55 191.5 297.05 191.5 297.15 191.5 297.15 191.5 297.05 191.5 298.85 190.9 300.35 189.8 301.6 188.5 302.95 186.5 303.85 183.8 304.35 183.8 304.35 183.8 304.35 183.8 304.35 184 303.35 184.2 302.35 184.2 301.35 184.2 301.35 184.2 301.35 184.2 301.35 184.2 298.95 183.6 297.25 182.5 296.05 181.4 294.95 180.2 294.35 178.9 294.35 178.9 294.35 178.9 294.35 178.9 294.35 177.8 294.35 176.7 294.95 175.5 296 174.3 297.15 173.3 298.65 172.3 300.55 171.3 302.55 170.4 304.75 169.8 307.3 169.2 309.95 168.9 312.65 168.9 315.65 168.9 315.65 168.9 315.65 168.9 315.65 168.9 315.65 168.9 315.65 168.9 315.65"></path><path id="letter_948671617" fill="rgb(145, 145, 145)" fill-opacity="0.25" stroke="#000000" stroke-width="1" d="M211 295.75C211 295.85 211 325.05 211 324.95 211 328.45 211.1 331.25 211.5 333.35 211.9 335.55 212.4 337.05 213 338.3 213.5 339.45 214.2 340.25 215 340.65 215.8 340.95 216.5 341.25 217.4 341.25 217.4 341.25 217.4 341.25 217.4 341.25 218.3 341.25 219.1 341.15 219.7 340.95 220.3 340.75 220.9 340.45 221.5 340.15 221.5 340.15 221.5 340.15 221.5 340.15 221.5 340.15 222.5 340.95 222.5 341.05 221.7 342.75 220.7 344.05 219.5 344.9 218.3 345.65 216.9 346.15 215.4 346.15 215.4 346.15 215.4 346.15 215.4 346.15 213.4 346.15 211.8 345.65 210.5 344.95 209.2 344.15 208.5 343.05 208.5 341.75 208.5 341.75 208.5 341.75 208.5 341.75 205.8 341.75 204 340.55 203.2 338.25 202.4 335.85 201.9 332.55 201.9 327.95 201.9 327.95 201.9 327.95 201.9 327.95 201.9 327.95 201.9 294.85 201.9 294.75 201.9 294.85 195.4 294.85 195.4 294.75 195.4 294.85 195.4 290.15 195.4 290.05 195.4 290.15 195.9 290.15 195.9 290.05 197.8 290.15 199.3 289.65 200.6 288.8 201.9 288.05 203 286.95 204 285.55 205 284.25 205.8 282.75 206.5 281 207.2 279.35 207.9 277.65 208.5 275.85 208.5 275.85 208.5 275.85 208.5 275.85 208.5 275.85 211 275.85 211 275.85 211 275.85 211 290.15 211 290.05 213.4 290.05 215.3 289.85 216.9 289.5 218.5 289.25 219.6 288.75 220.4 287.95 220.4 287.95 220.4 287.95 220.4 287.95 221.9 288.25 222.9 288.85 223.4 289.6 223.8 290.45 224 291.15 224 291.75 224 291.85 224 291.85 224 291.75 224 292.65 223.8 293.25 223.3 293.8 222.8 294.45 222.1 294.85 221.3 295.15 220.5 295.55 219.5 295.75 218.5 295.85 217.4 296.05 216.3 296.15 215.2 296.05 215.2 296.15 215.2 296.15 215.2 296.05 213.8 296.15 212.4 295.95 211 295.75 211 295.85 211 295.85 211 295.75 211 295.85 211 295.85 211 295.75"></path><path id="letter_715003553" fill="rgb(145, 145, 145)" fill-opacity="0.25" stroke="#000000" stroke-width="1" d="M250.7 332.75C250.7 332.85 250.7 332.85 250.7 332.75 251.7 332.85 252.7 332.65 253.7 332.4 254.7 332.25 255.6 331.75 256.5 331.1 257.4 330.55 258.2 329.65 259 328.4 259.8 327.25 260.5 325.75 261 323.75 261 323.75 261 323.75 261 323.75 262.6 323.75 263.9 324.15 264.9 324.85 265.9 325.65 266.4 326.75 266.4 328.25 266.4 328.35 266.4 328.35 266.4 328.25 266.4 329.75 265.9 330.95 265 332.05 264.1 333.25 262.9 334.15 261.4 334.9 259.9 335.75 258.2 336.25 256.2 336.65 254.2 337.05 252.2 337.15 250 337.25 250 337.15 250 337.15 250 337.25 246.4 337.15 243.2 336.65 240.4 335.5 237.5 334.35 235.2 332.75 233.4 330.6 231.5 328.55 230.1 326.05 229.1 322.95 228.1 320.05 227.7 316.65 227.7 313.05 227.7 313.15 227.7 313.15 227.7 313.05 227.7 305.65 229.6 299.75 233.5 295.45 237.5 291.25 243.1 289.15 250.4 289.05 250.4 289.15 250.4 289.15 250.4 289.05 251.2 289.15 252.1 289.15 253 289.15 253.8 289.25 254.6 289.45 255.4 289.6 256.1 289.85 256.7 290.25 257.2 290.6 257.6 291.05 257.9 291.65 257.9 292.25 257.9 292.35 257.9 292.35 257.9 292.25 258.9 292.35 259.9 292.45 260.9 292.85 261.9 293.35 262.9 293.85 263.8 294.65 264.7 295.45 265.4 296.55 266 297.7 266.6 298.95 266.9 300.45 266.9 302.15 266.9 302.15 266.9 302.15 266.9 302.15 266.9 304.65 266.2 306.65 265 308.25 263.9 309.85 262.3 311.15 260.5 312.1 258.7 313.15 256.7 313.75 254.5 314.1 252.3 314.55 250.3 314.65 248.4 314.65 248.4 314.65 248.4 314.65 248.4 314.65 246.2 314.65 244.1 314.55 242.2 314.15 240.3 313.85 238.7 313.45 237.4 312.95 237.4 313.05 237.4 313.05 237.4 312.95 237.4 313.05 237.4 313.35 237.4 313.35 237.4 316.15 237.6 318.75 238 321.15 238.5 323.55 239.3 325.65 240.3 327.3 241.3 329.05 242.7 330.35 244.4 331.3 246.1 332.35 248.2 332.85 250.7 332.75 250.7 332.85 250.7 332.85 250.7 332.75M249.5 293.75C249.5 293.85 249.5 293.85 249.5 293.75 246 293.85 243.2 295.15 241.2 297.65 239.3 300.35 238.1 303.85 237.5 308.45 237.5 308.55 237.5 308.55 237.5 308.45 238.7 309.25 240.2 309.75 242.2 309.9 244.2 310.15 246 310.25 247.9 310.25 247.9 310.25 247.9 310.25 247.9 310.25 251.5 310.25 254 309.75 255.4 308.55 256.8 307.45 257.5 305.55 257.5 302.65 257.5 302.65 257.5 302.65 257.5 302.65 257.5 299.35 256.8 297.05 255.2 295.7 253.7 294.45 251.8 293.85 249.5 293.75 249.5 293.85 249.5 293.85 249.5 293.75"></path><path id="letter_399947898" fill="rgb(145, 145, 145)" fill-opacity="0.25" stroke="#000000" stroke-width="1" d="M320.5 310.35C320.5 310.35 320.5 326.05 320.5 325.95 320.5 327.35 320.8 328.45 321.2 329.25 321.6 330.15 322.2 330.85 322.8 331.35 323.4 331.95 324.2 332.35 325 332.5 325.8 332.75 326.7 332.85 327.5 332.85 327.5 332.85 327.5 332.85 327.5 332.85 327.5 332.85 327.5 335.85 327.5 335.85 326.7 335.85 325.8 335.85 324.8 335.7 323.8 335.65 322.8 335.55 321.7 335.35 320.7 335.25 319.7 335.15 318.7 335 317.7 334.95 316.9 334.85 316 334.85 316 334.85 316 334.85 316 334.85 315.2 334.85 314.4 334.95 313.4 335 312.4 335.15 311.4 335.25 310.4 335.35 309.3 335.55 308.3 335.65 307.3 335.7 306.3 335.85 305.5 335.85 304.7 335.85 304.7 335.85 304.7 335.85 304.7 335.85 304.7 335.85 304.7 332.85 304.7 332.85 306.5 332.85 308 332.35 309.5 331.35 310.9 330.35 311.5 328.55 311.5 325.95 311.5 326.05 311.5 326.05 311.5 325.95 311.5 326.05 311.5 310.55 311.5 310.45 311.5 307.25 311.3 304.55 310.9 302.35 310.5 300.25 309.9 298.55 309 297.25 308.2 296.05 307.3 295.15 306.2 294.55 305.1 294.05 303.9 293.85 302.7 293.75 302.7 293.85 302.7 293.85 302.7 293.75 301.1 293.85 299.6 294.15 298.2 294.75 296.7 295.45 295.4 296.55 294.2 297.9 293 299.35 292 301.25 291.2 303.45 290.5 305.75 290.2 308.55 290.2 311.75 290.2 311.75 290.2 311.75 290.2 311.75 290.2 311.75 290.2 326.05 290.2 325.95 290.2 327.35 290.4 328.45 290.8 329.25 291.2 330.15 291.8 330.85 292.4 331.35 293 331.95 293.8 332.35 294.6 332.5 295.4 332.75 296.2 332.85 297 332.85 297 332.85 297 332.85 297 332.85 297 332.85 297 335.85 297 335.85 296.2 335.85 295.4 335.85 294.4 335.7 293.4 335.65 292.4 335.55 291.4 335.35 290.3 335.25 289.3 335.15 288.3 335 287.3 334.95 286.5 334.85 285.7 334.85 285.7 334.85 285.7 334.85 285.7 334.85 284.9 334.85 284 334.95 283 335 282 335.15 281 335.25 280 335.35 278.9 335.55 277.9 335.65 276.9 335.7 275.9 335.85 275 335.85 274.2 335.85 274.2 335.85 274.2 335.85 274.2 335.85 274.2 335.85 274.2 332.85 274.2 332.85 276 332.85 277.7 332.35 279 331.35 280.5 330.35 281.2 328.55 281.2 325.95 281.2 326.05 281.2 326.05 281.2 325.95 281.2 326.05 281.2 309.25 281.2 309.25 281.2 306.85 281.1 304.75 281 303.1 280.9 301.55 280.6 300.25 280.2 299.3 279.7 298.45 279 297.85 278.2 297.4 277.3 297.05 276.1 296.85 274.5 296.85 274.5 296.85 274.5 296.85 274.5 296.85 274.5 296.85 274.5 294.35 274.5 294.35 276.2 294.35 277.7 294.35 278.9 294.05 280.1 293.85 281.2 293.65 282.2 293.15 283.2 292.85 284.2 292.35 285 291.75 285.8 291.25 286.7 290.65 287.7 290.05 287.7 290.15 287.7 290.15 287.7 290.05 287.7 290.15 290.2 290.15 290.2 290.05 290.2 290.15 290.2 297.15 290.2 297.05 290.9 295.95 291.7 294.95 292.5 293.9 293.2 292.95 294.2 292.15 295.4 291.35 296.6 290.65 297.9 290.15 299.5 289.65 301.1 289.35 303 289.15 305.2 289.05 305.2 289.15 305.2 289.15 305.2 289.05 308.2 289.15 310.8 289.65 313.2 290.65 315.5 291.75 317.3 293.85 318.5 297.05 318.5 297.15 318.5 297.15 318.5 297.05 319.1 296.15 319.8 295.25 320.7 294.2 321.7 293.25 322.8 292.45 324 291.6 325.3 290.85 326.7 290.25 328.4 289.75 330 289.35 331.7 289.15 333.6 289.05 333.6 289.15 333.6 289.15 333.6 289.05 336.2 289.15 338.6 289.55 340.7 290.45 342.9 291.45 344.7 292.95 346.2 294.9 347.8 296.95 349 299.65 349.8 302.9 350.6 306.25 351.1 310.25 351.1 314.95 351.1 315.05 351.1 315.05 351.1 314.95 351.1 315.05 351.1 324.85 351.1 324.85 351.1 328.75 351.2 331.75 351.5 334 351.8 336.25 352.2 338.05 352.7 339.3 353.2 340.45 353.8 341.35 354.5 341.8 355.2 342.15 355.9 342.35 356.6 342.45 356.6 342.35 356.6 342.35 356.6 342.45 357.6 342.35 358.4 342.25 359.1 341.9 359.9 341.45 360.5 341.05 361.1 340.55 361.1 340.45 361.1 340.45 361.1 340.55 361.1 340.45 361.6 340.85 361.6 340.95 360.8 342.65 359.8 343.95 358.4 344.8 357 345.55 355.6 345.95 354 346.05 354 345.95 354 345.95 354 346.05 352 345.95 350.4 345.45 349.1 344.45 347.8 343.35 347.1 341.85 347.1 340.15 347.1 340.15 347.1 340.15 347.1 340.15 344.8 340.15 343.3 338.95 342.6 336.65 341.9 334.35 341.6 330.95 341.6 326.35 341.6 326.35 341.6 326.35 341.6 326.35 341.6 326.35 341.6 310.65 341.6 310.65 341.6 305.15 340.9 300.85 339.6 298 338.2 295.25 336 293.85 332.7 293.75 332.7 293.85 332.7 293.85 332.7 293.75 331.8 293.85 330.6 294.05 329.2 294.4 327.9 294.85 326.5 295.65 325.2 296.85 323.9 298.15 322.8 299.75 321.9 301.9 321 304.15 320.5 306.95 320.5 310.35 320.5 310.35 320.5 310.35 320.5 310.35 320.5 310.35 320.5 310.35 320.5 310.35"></path><path id="letter_655924613" fill="rgb(145, 145, 145)" fill-opacity="0.25" stroke="#000000" stroke-width="1" d="M387.1 264.95C387.1 264.95 387.1 324.75 387.1 324.75 387.1 326.35 387.5 327.65 388.1 328.55 388.7 329.55 389.5 330.25 390.4 330.6 391.3 331.05 392.3 331.35 393.3 331.45 394.3 331.65 395.2 331.75 396.1 331.65 396.1 331.75 396.1 331.75 396.1 331.65 396.1 331.75 396.1 335.85 396.1 335.85 395.2 335.85 394.2 335.85 393.1 335.7 391.9 335.65 390.6 335.55 389.4 335.35 388.1 335.25 386.9 335.15 385.6 335 384.5 334.95 383.5 334.85 382.6 334.85 382.6 334.85 382.6 334.85 382.6 334.85 381.9 334.85 380.9 334.95 379.6 335 378.5 335.15 377.2 335.25 376 335.35 374.7 335.55 373.5 335.65 372.2 335.7 371.1 335.85 370.1 335.85 369.2 335.85 369.2 335.85 369.2 335.85 369.2 335.85 369.2 335.85 369.2 331.75 369.2 331.65 370.1 331.75 371.1 331.65 372.1 331.45 373.2 331.35 374.2 331.05 375.1 330.6 375.9 330.25 376.6 329.55 377.2 328.55 377.9 327.65 378.1 326.35 378.1 324.75 378.1 324.75 378.1 324.75 378.1 324.75 378.1 324.75 378.1 285.15 378.1 285.15 378.1 282.75 378.1 280.65 378 279 377.9 277.45 377.6 276.15 377.1 275.2 376.7 274.35 376 273.75 375.1 273.3 374.3 272.95 373.1 272.85 371.6 272.75 371.6 272.85 371.6 272.85 371.6 272.75 371.6 272.85 371.6 269.35 371.6 269.25 373.2 269.35 374.7 269.25 375.9 268.95 377.1 268.85 378.2 268.45 379.2 268.05 380.2 267.75 381.2 267.25 382 266.65 382.8 266.15 383.7 265.55 384.6 264.95 384.6 264.95 384.6 264.95 384.6 264.95 384.6 264.95 387.1 264.95 387.1 264.95 387.1 264.95 387.1 264.95 387.1 264.95M389 297.05C389 297.15 389 296.65 389 296.65 389.7 297.25 390.9 297.85 392.5 298.55 394 299.35 396 299.65 398.6 299.65 398.6 299.65 398.6 299.65 398.6 299.65 401.7 299.65 404.1 299.05 406 297.7 407.7 296.45 409.1 294.85 410 292.95 410.9 291.15 411.5 289.15 411.7 287.05 411.9 285.05 412.1 283.25 412.1 281.75 412.1 281.85 412.1 281.85 412.1 281.75 412.1 279.35 411.8 276.85 411.4 274.05 410.9 271.35 409.8 268.85 408.1 266.55 406.5 264.35 404 262.45 400.8 260.9 397.6 259.45 393.2 258.75 387.7 258.65 387.7 258.75 387.7 258.75 387.7 258.65 383.1 258.75 379.1 259.35 375.9 260.45 372.7 261.75 370.1 263.45 368.1 265.65 366.1 267.95 364.6 270.75 363.7 274.1 362.8 277.55 362.4 281.35 362.4 285.55 362.4 285.65 362.4 285.65 362.4 285.55 361.5 285.65 360.5 285.45 359.5 285.05 358.5 284.75 357.5 284.25 356.6 283.55 355.8 282.95 355.1 282.15 354.5 281.05 353.9 280.15 353.6 278.95 353.6 277.55 353.6 277.65 353.6 277.65 353.6 277.55 353.6 276.05 354 274.65 354.9 273.2 355.7 271.85 357 271.25 358.6 271.15 358.6 271.25 358.6 271.25 358.6 271.15 358.1 270.85 357.8 270.15 357.6 269.15 357.4 268.25 357.4 267.45 357.4 266.75 357.4 266.85 357.4 266.85 357.4 266.75 357.4 264.55 358.2 262.55 360.1 260.9 361.9 259.35 364.2 257.95 367 256.9 369.8 255.95 373 255.15 376.5 254.65 380 254.25 383.5 253.95 387 253.95 387 253.95 387 253.95 387 253.95 393.6 253.95 399.1 254.75 403.6 256.25 408 257.85 411.6 259.85 414.4 262.3 417.1 264.85 419.1 267.75 420.2 270.9 421.5 274.15 422.1 277.45 422.1 280.85 422.1 280.85 422.1 280.85 422.1 280.85 422.1 283.65 421.7 286.55 420.9 289.3 420.1 292.15 418.9 294.75 417.2 296.9 415.6 299.15 413.4 300.95 410.8 302.35 408.2 303.85 405 304.55 401.4 304.45 401.4 304.55 401.4 304.55 401.4 304.45 399 304.55 397.1 304.25 395.5 303.65 393.9 303.15 392.7 302.45 391.7 301.65 390.8 300.85 390.1 300.05 389.7 299.2 389.3 298.45 389 297.65 389 297.05 389 297.15 389 297.15 389 297.05 389 297.15 389 297.15 389 297.05"></path><path id="letter_797534352" fill="rgb(145, 145, 145)" fill-opacity="0.25" stroke="#000000" stroke-width="1" d="M464.1 311.25C464.1 311.25 464.1 326.05 464.1 325.95 464.1 327.35 464.4 328.45 464.8 329.25 465.2 330.15 465.8 330.85 466.4 331.35 467 331.95 467.8 332.35 468.6 332.5 469.4 332.75 470.2 332.85 471.1 332.85 471.1 332.85 471.1 332.85 471.1 332.85 471.1 332.85 471.1 335.85 471.1 335.85 469.5 335.85 468.2 335.75 467.1 335.45 466 335.25 464.7 335.05 463.1 335.05 463.1 335.05 463.1 335.05 463.1 335.05 461.6 335.05 460.3 335.15 459.1 335.15 458 335.25 456.7 335.45 455.1 335.85 455.1 335.85 455.1 335.85 455.1 335.85 455.1 335.85 455.1 330.55 455.1 330.55 453.6 332.35 451.8 333.85 449.6 335.2 447.5 336.55 444.9 337.15 441.9 337.25 441.9 337.15 441.9 337.15 441.9 337.25 439.4 337.15 437.1 336.85 435.1 336.25 433.1 335.65 431.3 334.65 429.9 333.35 428.5 332.15 427.4 330.65 426.6 328.8 425.7 327.05 425.4 325.05 425.4 322.85 425.4 322.85 425.4 322.85 425.4 322.85 425.4 320.75 425.8 318.85 426.6 317.1 427.4 315.45 428.6 314.05 430.1 312.8 431.7 311.65 433.5 310.75 435.6 310.1 437.6 309.55 439.9 309.15 442.5 309.15 442.5 309.15 442.5 309.15 442.5 309.15 445.3 309.15 447.8 309.45 449.8 310 451.8 310.65 453.6 311.25 455.1 311.95 455.1 312.05 455.1 312.05 455.1 311.95 455.1 312.05 455.1 308.25 455.1 308.25 455.1 306.55 455 304.85 454.8 303.05 454.6 301.35 454.1 299.85 453.5 298.35 452.8 296.95 451.8 295.85 450.6 294.95 449.3 294.15 447.6 293.65 445.6 293.65 445.6 293.65 445.6 293.65 445.6 293.65 444.8 293.65 443.8 293.85 442.8 293.95 441.8 294.15 440.8 294.55 440 295 439.1 295.55 438.4 296.25 437.7 297 437.1 297.85 436.9 298.95 436.9 300.15 436.9 300.15 436.9 300.15 436.9 300.15 436.9 300.85 437 301.65 437.1 302.45 437.1 302.45 437.1 302.45 437.1 302.45 436.1 303.05 435.1 303.35 433.9 303.25 433.9 303.35 433.9 303.35 433.9 303.25 432 303.35 430.6 302.75 429.7 301.7 428.9 300.75 428.5 299.55 428.5 298.15 428.5 298.15 428.5 298.15 428.5 298.15 428.5 296.85 428.9 295.65 429.8 294.6 430.7 293.65 432 293.15 433.6 293.05 433.6 293.15 433.6 293.15 433.6 293.05 433.6 292.35 434 291.75 434.6 291.15 435.3 290.65 436.2 290.25 437.3 289.9 438.4 289.65 439.6 289.45 441 289.25 442.3 289.15 443.6 289.15 445.1 289.05 445.1 289.15 445.1 289.15 445.1 289.05 448.1 289.15 450.7 289.45 453.1 290.1 455.5 290.85 457.5 292.05 459.1 293.7 460.7 295.45 462 297.75 462.9 300.5 463.7 303.35 464.1 306.95 464.1 311.25 464.1 311.25 464.1 311.25 464.1 311.25 464.1 311.25 464.1 311.25 464.1 311.25M444.6 332.65C444.6 332.65 444.6 332.65 444.6 332.65 447 332.65 449 332.05 450.7 330.6 452.5 329.25 454 327.65 455.1 325.65 455.1 325.75 455.1 325.75 455.1 325.65 455.1 325.75 455.1 315.65 455.1 315.65 453.6 314.95 451.9 314.35 450.1 313.8 448.2 313.35 446.3 313.15 444.5 313.05 444.5 313.15 444.5 313.15 444.5 313.05 441.8 313.15 439.5 313.85 437.6 315.45 435.7 317.15 434.7 319.35 434.7 322.25 434.7 322.25 434.7 322.25 434.7 322.25 434.7 325.35 435.6 327.85 437.5 329.75 439.2 331.75 441.6 332.65 444.6 332.65 444.6 332.65 444.6 332.65 444.6 332.65"></path><path id="letter_556751715" fill="rgb(145, 145, 145)" fill-opacity="0.25" stroke="#000000" stroke-width="1" d="M490.5 319.45C490.5 319.55 490.5 326.05 490.5 325.95 490.5 327.35 490.7 328.45 491.1 329.25 491.5 330.15 492.1 330.85 492.7 331.35 493.3 331.95 494.1 332.35 494.9 332.5 495.7 332.75 496.6 332.85 497.4 332.85 497.4 332.85 497.4 332.85 497.4 332.85 497.4 332.85 497.4 335.85 497.4 335.85 496.6 335.85 495.7 335.85 494.7 335.7 493.7 335.65 492.7 335.55 491.6 335.35 490.6 335.25 489.6 335.15 488.6 335 487.6 334.95 486.7 334.85 486 334.85 486 334.85 486 334.85 486 334.85 485.1 334.85 484.3 334.95 483.3 335 482.3 335.15 481.3 335.25 480.2 335.35 479.2 335.55 478.2 335.65 477.2 335.7 476.2 335.85 475.4 335.85 474.6 335.85 474.6 335.85 474.6 335.85 474.6 335.85 474.6 335.85 474.6 332.85 474.6 332.85 476.4 332.85 478 332.35 479.4 331.35 480.7 330.35 481.5 328.55 481.5 325.95 481.5 326.05 481.5 326.05 481.5 325.95 481.5 326.05 481.5 274.65 481.5 274.65 481.5 272.25 481.4 270.15 481.3 268.5 481.2 266.95 480.9 265.65 480.5 264.7 480 263.85 479.3 263.25 478.5 262.8 477.6 262.45 476.4 262.35 474.9 262.25 474.9 262.35 474.9 262.35 474.9 262.25 474.9 262.35 474.9 259.35 474.9 259.25 476.5 259.35 478 259.25 479.2 258.95 480.4 258.85 481.6 258.45 482.6 258.05 483.6 257.75 484.5 257.25 485.3 256.65 486.1 256.15 487 255.55 488 254.95 488 254.95 488 254.95 488 254.95 488 254.95 490.5 254.95 490.5 254.95 490.5 254.95 490.5 311.25 490.5 311.25 490.5 311.25 499.6 299.95 499.6 299.95 501.1 298.15 502.3 296.75 503.2 295.6 504.2 294.55 505 293.75 505.6 293.15 506.2 292.65 506.8 292.35 507.3 292.1 507.8 291.95 508.4 291.85 509.1 291.85 509.1 291.85 509.1 291.85 509.1 291.85 509.4 291.45 510 291.05 510.9 290.6 511.7 290.25 512.6 290.15 513.6 290.05 513.6 290.15 513.6 290.15 513.6 290.05 514.9 290.15 516 290.55 516.9 291.4 517.7 292.35 518.2 293.55 518.5 295.05 518.5 295.15 518.5 295.15 518.5 295.05 518.5 295.15 518.1 295.35 518.1 295.35 517.6 294.85 516.7 294.45 515.6 294.45 515.6 294.45 515.6 294.45 515.6 294.45 514.6 294.45 513.7 294.75 512.9 295.25 512.1 295.85 511.2 296.55 510.3 297.3 509.4 298.15 508.5 299.15 507.6 300.2 506.7 301.35 505.7 302.45 504.7 303.45 504.7 303.45 504.7 303.45 504.7 303.45 504.7 303.45 500.9 307.85 500.9 307.85 500.9 307.85 514.9 325.75 514.9 325.65 516.6 328.15 518.2 329.95 519.8 331.1 521.4 332.35 522.7 332.85 523.9 332.85 523.9 332.85 523.9 332.85 523.9 332.85 523.9 332.85 523.9 335.85 523.9 335.85 523.3 335.85 522.5 335.85 521.5 335.75 520.5 335.75 519.4 335.65 518.2 335.5 517.1 335.45 516 335.35 515 335.2 514 335.15 513.2 335.05 512.6 335.05 512.6 335.05 512.6 335.05 512.6 335.05 512.1 335.05 511.3 335.15 510.3 335.2 509.3 335.35 508.2 335.45 507 335.5 505.8 335.65 504.7 335.75 503.7 335.75 502.7 335.85 501.9 335.85 501.4 335.85 501.4 335.85 501.4 335.85 501.4 335.85 501.4 335.85 501.4 332.85 501.4 332.85 501.7 332.85 502.2 332.85 502.7 332.75 503.2 332.75 503.7 332.65 504.1 332.35 504.5 332.15 504.9 331.85 505.2 331.45 505.6 331.05 505.7 330.55 505.7 329.95 505.7 329.95 505.7 329.95 505.7 329.95 505.7 329.25 505.5 328.35 504.9 327.45 504.3 326.65 504 326.05 503.7 325.65 503.7 325.75 503.7 325.75 503.7 325.65 503.7 325.75 495.2 314.15 495.2 314.05 495.2 314.15 490.5 319.55 490.5 319.45 490.5 319.55 490.5 319.55 490.5 319.45"></path></g></svg>